<?xml version="1.0" encoding="UTF-8"?>
<svg id="Layer_1" data-name="Layer 1" xmlns="http://www.w3.org/2000/svg" viewBox="0 0 500 199.86">
  <path d="m472.34,28.25C453.9,9.42,428.12,0,395.01,0h-100.66l-38.07,69.3V0h-38.98c-30.38,0-57.44,19.23-67.42,47.93l-21.4,61.52L95.17,0h-23.79C50.18,0,31.16,9.25,18.08,23.92,6.84,36.53,0,53.15,0,71.38v57.1c0,15.31,4.83,29.48,13.04,41.1,12.92,18.31,34.23,30.28,58.34,30.28h3.87v-90.41l24.69,90.41h57.1l23.11-87.81v87.81h76.14v-78.52l42.83,78.52h95.9c32.52,0,58.14-9.47,76.88-28.4,18.74-18.93,28.1-42.78,28.1-71.53s-9.22-52.84-27.66-71.68Zm-58.89,102.01c-6.94,8.33-15.37,12.49-25.28,12.49h-11.9V57.1h11.9c9.91,0,18.34,4.16,25.28,12.49,6.94,8.33,10.41,18.44,10.41,30.34s-3.47,22.01-10.41,30.34Z"/>
</svg>